<svg width="48" height="48" viewBox="0 0 48 48" fill="none" xmlns="http://www.w3.org/2000/svg">
<path d="M48 24C48 37.2548 37.2548 48 24 48C10.7452 48 0 37.2548 0 24C0 10.7452 10.7452 0 24 0C37.2548 0 48 10.7452 48 24Z" fill="#8FA282" fill-opacity="0.66"/>
<path d="M4.68359 23.5293C4.84766 23.8105 4.99609 24.0553 5.12891 24.2637C5.26172 24.4707 5.38281 24.651 5.49219 24.8047C5.60156 24.957 5.70052 25.0859 5.78906 25.1914C5.8776 25.2969 5.95964 25.3874 6.03516 25.4629C6.08984 25.5176 6.14062 25.5645 6.1875 25.6035C6.23568 25.6413 6.2819 25.6725 6.32617 25.6973C6.37044 25.7207 6.41341 25.7376 6.45508 25.748C6.49674 25.7585 6.53971 25.7637 6.58398 25.7637C6.63607 25.7637 6.69076 25.7572 6.74805 25.7441C6.80664 25.7311 6.87109 25.7135 6.94141 25.6914L6.99609 25.8516C6.90234 25.8906 6.81641 25.9251 6.73828 25.9551C6.66146 25.9837 6.59049 26.0078 6.52539 26.0273C6.46159 26.0482 6.40299 26.0632 6.34961 26.0723C6.29622 26.0827 6.24674 26.0879 6.20117 26.0879C6.1569 26.0879 6.11458 26.0827 6.07422 26.0723C6.03516 26.0618 5.99609 26.0462 5.95703 26.0254C5.91927 26.0059 5.88086 25.9811 5.8418 25.9512C5.80273 25.9199 5.76172 25.8841 5.71875 25.8438C5.64714 25.7773 5.5638 25.6882 5.46875 25.5762C5.375 25.4629 5.26823 25.3216 5.14844 25.1523C5.02995 24.9818 4.89779 24.7806 4.75195 24.5488C4.60612 24.3158 4.44596 24.0469 4.27148 23.7422L4.27344 23.7168L4.41797 23.5117C4.63021 23.2096 4.82682 22.9342 5.00781 22.6855C5.1888 22.4355 5.35872 22.222 5.51758 22.0449C5.67773 21.8665 5.82943 21.7285 5.97266 21.6309C6.11719 21.5332 6.25911 21.4844 6.39844 21.4844C6.45833 21.4844 6.51042 21.4928 6.55469 21.5098C6.59896 21.5254 6.63542 21.5469 6.66406 21.5742C6.69401 21.6016 6.71549 21.6335 6.72852 21.6699C6.74284 21.7064 6.75 21.7448 6.75 21.7852C6.75 21.8477 6.73503 21.9102 6.70508 21.9727C6.67513 22.0352 6.63216 22.0879 6.57617 22.1309H6.56055C6.50977 22.0762 6.45703 22.0391 6.40234 22.0195C6.34896 21.9987 6.29622 21.9883 6.24414 21.9883C6.13867 21.9883 6.02604 22.0299 5.90625 22.1133C5.78646 22.1953 5.66016 22.3066 5.52734 22.4473C5.39583 22.5879 5.25911 22.7513 5.11719 22.9375C4.97656 23.1237 4.83203 23.321 4.68359 23.5293ZM3.72852 22.1289C3.72852 22.0677 3.72396 22.0156 3.71484 21.9727C3.70703 21.9284 3.69141 21.8926 3.66797 21.8652C3.64453 21.8379 3.61198 21.8184 3.57031 21.8066C3.52995 21.7936 3.47786 21.7871 3.41406 21.7871C3.32812 21.7871 3.2181 21.7969 3.08398 21.8164L3.06445 21.6543C3.25326 21.6061 3.41341 21.5703 3.54492 21.5469C3.67643 21.5221 3.78646 21.5098 3.875 21.5098C3.96224 21.5098 4.0306 21.5215 4.08008 21.5449C4.12956 21.5671 4.16602 21.6009 4.18945 21.6465C4.21419 21.6908 4.22917 21.7454 4.23438 21.8105C4.23958 21.8757 4.24219 21.9499 4.24219 22.0332C4.24219 22.0553 4.24089 22.1048 4.23828 22.1816C4.23698 22.2585 4.23438 22.3574 4.23047 22.4785C4.22786 22.5983 4.22396 22.7376 4.21875 22.8965C4.21354 23.0553 4.20833 23.2285 4.20312 23.416C4.19792 23.6022 4.19206 23.8001 4.18555 24.0098C4.17904 24.2181 4.17253 24.4329 4.16602 24.6543C4.15951 24.8743 4.15234 25.0983 4.14453 25.3262C4.13802 25.5527 4.13151 25.7773 4.125 26L3.66211 26.0586L3.62695 26.0547C3.64258 25.6797 3.65625 25.3236 3.66797 24.9863C3.68099 24.6478 3.69206 24.3197 3.70117 24.002C3.71029 23.6829 3.7168 23.3698 3.7207 23.0625C3.72591 22.7539 3.72852 22.4427 3.72852 22.1289ZM6.94922 24.877C6.94922 24.7454 6.96289 24.612 6.99023 24.4766C7.01758 24.3411 7.05794 24.2103 7.11133 24.084C7.16471 23.9564 7.23047 23.8372 7.30859 23.7266C7.38802 23.6146 7.47917 23.5169 7.58203 23.4336C7.6849 23.3503 7.79948 23.2845 7.92578 23.2363C8.05208 23.1882 8.18945 23.1641 8.33789 23.1641C8.50456 23.1641 8.65169 23.1992 8.7793 23.2695C8.9082 23.3398 9.01628 23.4329 9.10352 23.5488C9.19076 23.6634 9.25651 23.7943 9.30078 23.9414C9.34635 24.0885 9.36914 24.2389 9.36914 24.3926C9.36914 24.5241 9.35547 24.6576 9.32812 24.793C9.30078 24.9284 9.25977 25.0599 9.20508 25.1875C9.15169 25.3138 9.08529 25.4329 9.00586 25.5449C8.92773 25.6556 8.83724 25.7526 8.73438 25.8359C8.63151 25.9193 8.51693 25.985 8.39062 26.0332C8.26432 26.0814 8.12695 26.1055 7.97852 26.1055C7.81185 26.1055 7.66406 26.0703 7.53516 26C7.40755 25.9297 7.30013 25.8372 7.21289 25.7227C7.12695 25.6068 7.0612 25.4753 7.01562 25.3281C6.97135 25.181 6.94922 25.0306 6.94922 24.877ZM7.41602 24.6914C7.41602 24.7799 7.42253 24.8698 7.43555 24.9609C7.44987 25.0521 7.47135 25.14 7.5 25.2246C7.52865 25.3092 7.5638 25.3887 7.60547 25.4629C7.64844 25.5358 7.69857 25.5996 7.75586 25.6543C7.81445 25.709 7.87956 25.752 7.95117 25.7832C8.02409 25.8145 8.10417 25.8301 8.19141 25.8301C8.28646 25.8301 8.36979 25.8099 8.44141 25.7695C8.51432 25.7279 8.57682 25.6732 8.62891 25.6055C8.68229 25.5378 8.72591 25.4603 8.75977 25.373C8.79492 25.2858 8.82292 25.196 8.84375 25.1035C8.86458 25.0098 8.87891 24.9173 8.88672 24.8262C8.89583 24.735 8.90039 24.651 8.90039 24.5742C8.90039 24.4844 8.89323 24.3945 8.87891 24.3047C8.86589 24.2135 8.84505 24.1263 8.81641 24.043C8.78776 23.9583 8.75195 23.8796 8.70898 23.8066C8.66732 23.7324 8.61719 23.6686 8.55859 23.6152C8.5013 23.5605 8.4362 23.5176 8.36328 23.4863C8.29167 23.4551 8.21224 23.4395 8.125 23.4395C8.02995 23.4395 7.94596 23.4596 7.87305 23.5C7.80143 23.5404 7.73893 23.5944 7.68555 23.6621C7.63346 23.7298 7.58984 23.8073 7.55469 23.8945C7.52083 23.9818 7.49349 24.0716 7.47266 24.1641C7.45182 24.2565 7.43685 24.349 7.42773 24.4414C7.41992 24.5326 7.41602 24.6159 7.41602 24.6914ZM10.8184 21.7773C10.7637 22.0247 10.7174 22.2806 10.6797 22.5449C10.6432 22.8079 10.612 23.0677 10.5859 23.3242C10.6471 23.3268 10.7064 23.3288 10.7637 23.3301C10.8223 23.3314 10.8763 23.3327 10.9258 23.334C10.9766 23.3353 11.0221 23.3359 11.0625 23.3359C11.1042 23.3359 11.1387 23.3359 11.166 23.3359C11.2845 23.3359 11.3815 23.3288 11.457 23.3145C11.4635 23.3366 11.4688 23.3568 11.4727 23.375C11.4766 23.3932 11.4785 23.4102 11.4785 23.4258C11.4785 23.4831 11.4544 23.5202 11.4062 23.5371C11.3594 23.554 11.291 23.5625 11.2012 23.5625C11.1152 23.5625 11.0189 23.5573 10.9121 23.5469C10.8066 23.5365 10.6908 23.5267 10.5645 23.5176C10.5501 23.6569 10.5378 23.793 10.5273 23.9258C10.5182 24.0573 10.5104 24.1816 10.5039 24.2988C10.4987 24.416 10.4948 24.5247 10.4922 24.625C10.4896 24.7253 10.4883 24.8125 10.4883 24.8867C10.4883 25.026 10.4954 25.1504 10.5098 25.2598C10.5241 25.3691 10.5495 25.4622 10.5859 25.5391C10.6224 25.6146 10.6725 25.6725 10.7363 25.7129C10.8001 25.7533 10.8809 25.7734 10.9785 25.7734C11.0488 25.7734 11.127 25.7611 11.2129 25.7363C11.3001 25.7116 11.3991 25.6719 11.5098 25.6172C11.5449 25.6523 11.5651 25.6953 11.5703 25.7461C11.4896 25.7995 11.4082 25.8483 11.3262 25.8926C11.2441 25.9355 11.1634 25.9727 11.084 26.0039C11.0046 26.0352 10.9277 26.0592 10.8535 26.0762C10.7793 26.0931 10.709 26.1016 10.6426 26.1016C10.5553 26.1016 10.4753 26.0853 10.4023 26.0527C10.3307 26.0215 10.2682 25.9655 10.2148 25.8848C10.1628 25.8027 10.1217 25.6927 10.0918 25.5547C10.0632 25.4167 10.0488 25.2422 10.0488 25.0312C10.0488 24.9128 10.0508 24.791 10.0547 24.666C10.0586 24.5397 10.0638 24.4121 10.0703 24.2832C10.0768 24.1543 10.0853 24.0254 10.0957 23.8965C10.1061 23.7676 10.1178 23.6406 10.1309 23.5156C10.028 23.5169 9.93229 23.5215 9.84375 23.5293C9.75651 23.5358 9.68164 23.5469 9.61914 23.5625C9.61523 23.5547 9.61328 23.5456 9.61328 23.5352C9.61328 23.5078 9.6263 23.4824 9.65234 23.459C9.67969 23.4342 9.7168 23.4121 9.76367 23.3926C9.81185 23.373 9.86914 23.3568 9.93555 23.3438C10.002 23.3307 10.0749 23.3216 10.1543 23.3164C10.1842 23.0443 10.2161 22.7871 10.25 22.5449C10.2839 22.3027 10.3177 22.0866 10.3516 21.8965C10.3581 21.8626 10.3698 21.8346 10.3867 21.8125C10.4049 21.7904 10.4258 21.7728 10.4492 21.7598C10.4727 21.7467 10.498 21.7376 10.5254 21.7324C10.5527 21.7272 10.5794 21.7246 10.6055 21.7246C10.6484 21.7246 10.6868 21.7292 10.7207 21.7383C10.7559 21.7474 10.7884 21.7604 10.8184 21.7773ZM11.6914 24.877C11.6914 24.7454 11.7051 24.612 11.7324 24.4766C11.7598 24.3411 11.8001 24.2103 11.8535 24.084C11.9069 23.9564 11.9727 23.8372 12.0508 23.7266C12.1302 23.6146 12.2214 23.5169 12.3242 23.4336C12.4271 23.3503 12.5417 23.2845 12.668 23.2363C12.7943 23.1882 12.9316 23.1641 13.0801 23.1641C13.2467 23.1641 13.3939 23.1992 13.5215 23.2695C13.6504 23.3398 13.7585 23.4329 13.8457 23.5488C13.9329 23.6634 13.9987 23.7943 14.043 23.9414C14.0885 24.0885 14.1113 24.2389 14.1113 24.3926C14.1113 24.5241 14.0977 24.6576 14.0703 24.793C14.043 24.9284 14.002 25.0599 13.9473 25.1875C13.8939 25.3138 13.8275 25.4329 13.748 25.5449C13.6699 25.6556 13.5794 25.7526 13.4766 25.8359C13.3737 25.9193 13.2591 25.985 13.1328 26.0332C13.0065 26.0814 12.8691 26.1055 12.7207 26.1055C12.554 26.1055 12.4062 26.0703 12.2773 26C12.1497 25.9297 12.0423 25.8372 11.9551 25.7227C11.8691 25.6068 11.8034 25.4753 11.7578 25.3281C11.7135 25.181 11.6914 25.0306 11.6914 24.877ZM12.1582 24.6914C12.1582 24.7799 12.1647 24.8698 12.1777 24.9609C12.1921 25.0521 12.2135 25.14 12.2422 25.2246C12.2708 25.3092 12.306 25.3887 12.3477 25.4629C12.3906 25.5358 12.4408 25.5996 12.498 25.6543C12.5566 25.709 12.6217 25.752 12.6934 25.7832C12.7663 25.8145 12.8464 25.8301 12.9336 25.8301C13.0286 25.8301 13.112 25.8099 13.1836 25.7695C13.2565 25.7279 13.319 25.6732 13.3711 25.6055C13.4245 25.5378 13.4681 25.4603 13.502 25.373C13.5371 25.2858 13.5651 25.196 13.5859 25.1035C13.6068 25.0098 13.6211 24.9173 13.6289 24.8262C13.638 24.735 13.6426 24.651 13.6426 24.5742C13.6426 24.4844 13.6354 24.3945 13.6211 24.3047C13.6081 24.2135 13.5872 24.1263 13.5586 24.043C13.5299 23.9583 13.4941 23.8796 13.4512 23.8066C13.4095 23.7324 13.3594 23.6686 13.3008 23.6152C13.2435 23.5605 13.1784 23.5176 13.1055 23.4863C13.0339 23.4551 12.9544 23.4395 12.8672 23.4395C12.7721 23.4395 12.6882 23.4596 12.6152 23.5C12.5436 23.5404 12.4811 23.5944 12.4277 23.6621C12.3757 23.7298 12.332 23.8073 12.2969 23.8945C12.263 23.9818 12.2357 24.0716 12.2148 24.1641C12.194 24.2565 12.179 24.349 12.1699 24.4414C12.1621 24.5326 12.1582 24.6159 12.1582 24.6914ZM15.1465 24.9629C15.2467 24.6335 15.3529 24.3542 15.4648 24.125C15.5781 23.8958 15.6927 23.7103 15.8086 23.5684C15.9258 23.4251 16.0423 23.3216 16.1582 23.2578C16.2741 23.194 16.3848 23.1621 16.4902 23.1621C16.5632 23.1621 16.6335 23.1764 16.7012 23.2051C16.7689 23.2324 16.8288 23.2754 16.8809 23.334C16.9342 23.3926 16.9766 23.4681 17.0078 23.5605C17.0391 23.653 17.0547 23.7637 17.0547 23.8926C17.0547 23.9316 17.0521 23.985 17.0469 24.0527C17.043 24.1191 17.0378 24.194 17.0312 24.2773C17.0247 24.3594 17.0169 24.446 17.0078 24.5371C17 24.6283 16.9928 24.7181 16.9863 24.8066C16.9798 24.8952 16.974 24.9792 16.9688 25.0586C16.9648 25.138 16.9629 25.2064 16.9629 25.2637C16.9629 25.3652 16.9668 25.4479 16.9746 25.5117C16.9837 25.5755 16.998 25.6263 17.0176 25.6641C17.0371 25.7005 17.0632 25.7259 17.0957 25.7402C17.1283 25.7533 17.168 25.7598 17.2148 25.7598C17.2826 25.7598 17.3529 25.7507 17.4258 25.7324C17.4987 25.7129 17.5723 25.6862 17.6465 25.6523L17.6836 25.7539C17.6367 25.7917 17.5775 25.8301 17.5059 25.8691C17.4342 25.9082 17.3587 25.944 17.2793 25.9766C17.2012 26.0091 17.123 26.0352 17.0449 26.0547C16.9668 26.0755 16.8978 26.0859 16.8379 26.0859C16.7676 26.0859 16.7122 26.0671 16.6719 26.0293C16.6315 25.9915 16.6009 25.9401 16.5801 25.875C16.5605 25.8099 16.5475 25.7337 16.541 25.6465C16.5358 25.5592 16.5332 25.4655 16.5332 25.3652C16.5332 25.2441 16.5371 25.1191 16.5449 24.9902C16.554 24.8613 16.5632 24.7376 16.5723 24.6191C16.5827 24.5007 16.5918 24.3926 16.5996 24.2949C16.6087 24.196 16.6133 24.1165 16.6133 24.0566C16.6133 23.9121 16.5853 23.804 16.5293 23.7324C16.4733 23.6595 16.3978 23.623 16.3027 23.623C16.2285 23.623 16.1491 23.6549 16.0645 23.7188C15.9811 23.7826 15.8978 23.8704 15.8145 23.9824C15.7324 24.0931 15.653 24.2246 15.5762 24.377C15.4993 24.528 15.4303 24.6921 15.3691 24.8691C15.3079 25.0449 15.2572 25.2292 15.2168 25.4219C15.1764 25.6146 15.151 25.8073 15.1406 26L14.7246 26.0508L14.6934 26.0488C14.7012 25.8952 14.7096 25.7259 14.7188 25.541C14.7292 25.3548 14.7396 25.1576 14.75 24.9492C14.7617 24.7409 14.7734 24.5241 14.7852 24.2988C14.7982 24.0723 14.8105 23.8418 14.8223 23.6074C14.8353 23.373 14.8483 23.1367 14.8613 22.8984C14.8743 22.6602 14.8867 22.4251 14.8984 22.1934C14.9115 21.9603 14.9238 21.7324 14.9355 21.5098C14.9473 21.2871 14.9583 21.0742 14.9688 20.8711C14.9701 20.8398 14.9792 20.8132 14.9961 20.791C15.013 20.7676 15.0345 20.7493 15.0605 20.7363C15.0879 20.722 15.1185 20.7116 15.1523 20.7051C15.1862 20.6986 15.2214 20.6953 15.2578 20.6953C15.3359 20.6953 15.418 20.7161 15.5039 20.7578C15.474 21.0234 15.4473 21.2676 15.4238 21.4902C15.4004 21.7116 15.3789 21.9173 15.3594 22.1074C15.3411 22.2962 15.3242 22.4727 15.3086 22.6367C15.2943 22.8008 15.2806 22.9583 15.2676 23.1094C15.2559 23.2591 15.2448 23.4056 15.2344 23.5488C15.224 23.6921 15.2135 23.8379 15.2031 23.9863C15.1927 24.1335 15.1816 24.2871 15.1699 24.4473C15.1595 24.6061 15.1478 24.7773 15.1348 24.9609L15.1465 24.9629ZM19.5059 23.9922C19.5059 23.8893 19.4889 23.8001 19.4551 23.7246C19.4212 23.6491 19.377 23.5872 19.3223 23.5391C19.2676 23.4909 19.2057 23.4551 19.1367 23.4316C19.0677 23.4082 18.9987 23.3965 18.9297 23.3965C18.8372 23.3965 18.7591 23.4062 18.6953 23.4258C18.6315 23.4453 18.5794 23.472 18.5391 23.5059C18.5 23.5397 18.4714 23.5801 18.4531 23.627C18.4362 23.6725 18.4277 23.722 18.4277 23.7754C18.4277 23.8379 18.4388 23.901 18.4609 23.9648C18.4844 24.0273 18.5182 24.0885 18.5625 24.1484L18.5547 24.1699C18.4805 24.2064 18.4056 24.2246 18.3301 24.2246C18.2858 24.2246 18.2441 24.2181 18.2051 24.2051C18.1673 24.1908 18.1341 24.1706 18.1055 24.1445C18.0781 24.1185 18.056 24.0866 18.0391 24.0488C18.0234 24.0111 18.0156 23.9688 18.0156 23.9219C18.0156 23.8451 18.0339 23.7728 18.0703 23.7051C18.1081 23.6374 18.1576 23.5755 18.2188 23.5195C18.2799 23.4635 18.3509 23.4134 18.4316 23.3691C18.5124 23.3249 18.5957 23.2878 18.6816 23.2578C18.7676 23.2266 18.8535 23.2031 18.9395 23.1875C19.0267 23.1706 19.1074 23.1621 19.1816 23.1621C19.3184 23.1621 19.4349 23.1803 19.5312 23.2168C19.6289 23.2533 19.7077 23.3066 19.7676 23.377C19.8288 23.446 19.873 23.5299 19.9004 23.6289C19.929 23.7279 19.9434 23.8398 19.9434 23.9648C19.9434 24.0508 19.9395 24.1452 19.9316 24.248C19.9251 24.3509 19.9173 24.459 19.9082 24.5723C19.8991 24.6842 19.8906 24.8001 19.8828 24.9199C19.8763 25.0397 19.873 25.1589 19.873 25.2773C19.873 25.4648 19.9076 25.6061 19.9766 25.7012C20.0469 25.7949 20.1387 25.8418 20.252 25.8418C20.3522 25.8418 20.4642 25.8047 20.5879 25.7305L20.6445 25.8145C20.5573 25.9017 20.4622 25.9681 20.3594 26.0137C20.2565 26.0592 20.1484 26.082 20.0352 26.082C19.9505 26.082 19.8724 26.0677 19.8008 26.0391C19.7292 26.0104 19.6673 25.9681 19.6152 25.9121C19.5632 25.8548 19.5228 25.7832 19.4941 25.6973C19.4655 25.6113 19.4512 25.5117 19.4512 25.3984C19.4512 25.3646 19.4518 25.3307 19.4531 25.2969C19.4557 25.263 19.4603 25.2272 19.4668 25.1895H19.4551C19.3991 25.3014 19.334 25.4121 19.2598 25.5215C19.1868 25.6296 19.1061 25.7266 19.0176 25.8125C18.9303 25.8971 18.8366 25.9655 18.7363 26.0176C18.6374 26.071 18.5332 26.0977 18.4238 26.0977C18.334 26.0977 18.252 26.082 18.1777 26.0508C18.1035 26.0195 18.0397 25.9766 17.9863 25.9219C17.9342 25.8672 17.8932 25.8027 17.8633 25.7285C17.8346 25.653 17.8203 25.571 17.8203 25.4824C17.8203 25.3678 17.8411 25.2637 17.8828 25.1699C17.9258 25.0762 17.9844 24.9922 18.0586 24.918C18.1341 24.8438 18.224 24.7799 18.3281 24.7266C18.4323 24.6719 18.5456 24.627 18.668 24.5918C18.7904 24.5553 18.9199 24.5286 19.0566 24.5117C19.1934 24.4935 19.3327 24.4844 19.4746 24.4844C19.4837 24.4023 19.4909 24.3229 19.4961 24.2461C19.5026 24.1693 19.5059 24.0846 19.5059 23.9922ZM18.3066 25.334C18.3066 25.3848 18.3118 25.4336 18.3223 25.4805C18.334 25.526 18.3516 25.5664 18.375 25.6016C18.3997 25.6367 18.4303 25.6647 18.4668 25.6855C18.5046 25.7051 18.5495 25.7148 18.6016 25.7148C18.6602 25.7148 18.7207 25.7012 18.7832 25.6738C18.8457 25.6465 18.9069 25.6087 18.9668 25.5605C19.028 25.5124 19.0859 25.4551 19.1406 25.3887C19.1966 25.321 19.2467 25.2474 19.291 25.168C19.3353 25.0885 19.3717 25.0052 19.4004 24.918C19.4303 24.8294 19.4499 24.7389 19.459 24.6465C19.3626 24.6491 19.2669 24.6556 19.1719 24.666C19.0768 24.6751 18.9863 24.6901 18.9004 24.7109C18.8158 24.7318 18.737 24.7591 18.6641 24.793C18.5911 24.8268 18.528 24.8691 18.4746 24.9199C18.4225 24.9694 18.3815 25.0286 18.3516 25.0977C18.3216 25.1654 18.3066 25.2441 18.3066 25.334ZM20.5117 22.9648C20.5807 22.9102 20.6426 22.8516 20.6973 22.7891C20.752 22.7253 20.7982 22.6595 20.8359 22.5918C20.8737 22.5241 20.9023 22.4564 20.9219 22.3887C20.9427 22.3197 20.9531 22.2526 20.9531 22.1875C20.9531 22.1302 20.9453 22.0833 20.9297 22.0469C20.9154 22.0104 20.8965 21.9792 20.873 21.9531C20.8496 21.9271 20.8249 21.9043 20.7988 21.8848C20.7728 21.8639 20.748 21.8418 20.7246 21.8184C20.7012 21.7936 20.6816 21.765 20.666 21.7324C20.6517 21.6999 20.6445 21.6576 20.6445 21.6055C20.6445 21.5677 20.6517 21.5312 20.666 21.4961C20.6816 21.4596 20.7031 21.4277 20.7305 21.4004C20.7578 21.373 20.7904 21.3509 20.8281 21.334C20.8659 21.3171 20.9076 21.3086 20.9531 21.3086C21.0169 21.3086 21.0729 21.3216 21.1211 21.3477C21.1693 21.3724 21.2096 21.4076 21.2422 21.4531C21.2747 21.4987 21.2988 21.5527 21.3145 21.6152C21.3314 21.6777 21.3398 21.7454 21.3398 21.8184C21.3398 21.9173 21.3249 22.0221 21.2949 22.1328C21.2663 22.2435 21.222 22.3542 21.1621 22.4648C21.1022 22.5755 21.026 22.6836 20.9336 22.7891C20.8411 22.8932 20.7318 22.9889 20.6055 23.0762L20.5117 22.9648ZM21.5195 25.2949C21.5286 25.3939 21.5547 25.4792 21.5977 25.5508C21.6419 25.6224 21.696 25.681 21.7598 25.7266C21.8236 25.7721 21.8939 25.806 21.9707 25.8281C22.0488 25.8503 22.1263 25.8613 22.2031 25.8613C22.2747 25.8613 22.3438 25.8516 22.4102 25.832C22.4766 25.8125 22.5352 25.7845 22.5859 25.748C22.6367 25.7116 22.6771 25.6667 22.707 25.6133C22.7383 25.5599 22.7539 25.5 22.7539 25.4336C22.7539 25.3646 22.7376 25.304 22.7051 25.252C22.6725 25.1999 22.6289 25.1523 22.5742 25.1094C22.5195 25.0664 22.4557 25.0267 22.3828 24.9902C22.3112 24.9538 22.2363 24.9167 22.1582 24.8789C22.0892 24.8464 22.0195 24.8138 21.9492 24.7812C21.8802 24.7474 21.8132 24.7109 21.748 24.6719C21.6829 24.6328 21.6217 24.5905 21.5645 24.5449C21.5085 24.4993 21.459 24.4492 21.416 24.3945C21.3743 24.3385 21.3411 24.2767 21.3164 24.209C21.293 24.14 21.2812 24.0638 21.2812 23.9805C21.2812 23.8906 21.2969 23.8079 21.3281 23.7324C21.3594 23.6569 21.4017 23.5892 21.4551 23.5293C21.5098 23.4681 21.5723 23.4147 21.6426 23.3691C21.7142 23.3236 21.7904 23.2858 21.8711 23.2559C21.9518 23.2246 22.0345 23.2018 22.1191 23.1875C22.2051 23.1719 22.2884 23.1641 22.3691 23.1641C22.4733 23.1641 22.5716 23.1758 22.6641 23.1992C22.7578 23.2214 22.8392 23.2546 22.9082 23.2988C22.9785 23.3418 23.0339 23.3945 23.0742 23.457C23.1159 23.5195 23.1367 23.5898 23.1367 23.668C23.1367 23.6979 23.1315 23.7305 23.1211 23.7656C23.1107 23.8008 23.0931 23.834 23.0684 23.8652C23.0436 23.8952 23.0111 23.9206 22.9707 23.9414C22.9303 23.9622 22.8809 23.9733 22.8223 23.9746C22.7676 23.9746 22.7103 23.9661 22.6504 23.9492L22.6445 23.9297C22.6628 23.888 22.6758 23.8496 22.6836 23.8145C22.6914 23.7793 22.6953 23.7467 22.6953 23.7168C22.694 23.6569 22.6784 23.6068 22.6484 23.5664C22.6198 23.5247 22.5833 23.4909 22.5391 23.4648C22.4948 23.4388 22.4453 23.4199 22.3906 23.4082C22.3372 23.3965 22.2845 23.3906 22.2324 23.3906C22.14 23.3906 22.0573 23.403 21.9844 23.4277C21.9115 23.4525 21.8496 23.4857 21.7988 23.5273C21.7493 23.5677 21.7109 23.6139 21.6836 23.666C21.6576 23.7181 21.6445 23.7721 21.6445 23.8281C21.6445 23.8997 21.6634 23.9642 21.7012 24.0215C21.7389 24.0775 21.7891 24.1296 21.8516 24.1777C21.9141 24.2246 21.9857 24.2689 22.0664 24.3105C22.1484 24.3522 22.2337 24.3939 22.3223 24.4355C22.4212 24.4824 22.5195 24.5312 22.6172 24.582C22.7148 24.6315 22.8021 24.6882 22.8789 24.752C22.9557 24.8158 23.0176 24.8893 23.0645 24.9727C23.1126 25.0547 23.1367 25.1517 23.1367 25.2637C23.1367 25.3978 23.1068 25.5169 23.0469 25.6211C22.9883 25.7253 22.9095 25.8132 22.8105 25.8848C22.7116 25.9564 22.5977 26.0104 22.4688 26.0469C22.3411 26.0846 22.2083 26.1035 22.0703 26.1035C22.0013 26.1035 21.9297 26.0983 21.8555 26.0879C21.7826 26.0775 21.7116 26.0618 21.6426 26.041C21.5736 26.0202 21.5078 25.9948 21.4453 25.9648C21.3841 25.9336 21.3301 25.8984 21.2832 25.8594C21.2376 25.819 21.2012 25.7747 21.1738 25.7266C21.1478 25.6771 21.1348 25.623 21.1348 25.5645C21.1348 25.5137 21.1452 25.4707 21.166 25.4355C21.1882 25.4004 21.2168 25.3717 21.252 25.3496C21.2871 25.3275 21.3262 25.3112 21.3691 25.3008C21.4134 25.2891 21.4583 25.2826 21.5039 25.2812L21.5195 25.2949ZM25.4395 22.1191C25.4395 22.0645 25.4349 22.0176 25.4258 21.9785C25.4167 21.9395 25.4004 21.9076 25.377 21.8828C25.3548 21.8581 25.3236 21.8398 25.2832 21.8281C25.2428 21.8164 25.1914 21.8105 25.1289 21.8105C25.043 21.8105 24.9329 21.8203 24.7988 21.8398L24.7754 21.666C24.8978 21.6439 25.0312 21.6211 25.1758 21.5977C25.3216 21.5742 25.4707 21.5527 25.623 21.5332C25.7767 21.5137 25.9303 21.498 26.084 21.4863C26.2389 21.4733 26.3874 21.4668 26.5293 21.4668C26.7168 21.4668 26.8926 21.4837 27.0566 21.5176C27.222 21.5514 27.3659 21.6094 27.4883 21.6914C27.612 21.7721 27.7096 21.8809 27.7812 22.0176C27.8529 22.1543 27.8887 22.3249 27.8887 22.5293C27.8887 22.7676 27.8483 22.9818 27.7676 23.1719C27.6882 23.3607 27.5762 23.5208 27.4316 23.6523C27.2871 23.7839 27.1133 23.8848 26.9102 23.9551C26.7083 24.0241 26.485 24.0586 26.2402 24.0586C26.1855 24.0586 26.1471 24.0501 26.125 24.0332C26.1029 24.0163 26.0918 23.9798 26.0918 23.9238V23.8984C26.0918 23.8854 26.0924 23.8757 26.0938 23.8691C26.2852 23.8691 26.4492 23.8496 26.5859 23.8105C26.724 23.7702 26.8398 23.7174 26.9336 23.6523C27.0273 23.5859 27.1022 23.5111 27.1582 23.4277C27.2142 23.3431 27.2572 23.2565 27.2871 23.168C27.3171 23.0781 27.3366 22.9896 27.3457 22.9023C27.3548 22.8151 27.3594 22.7363 27.3594 22.666C27.3594 22.4772 27.3327 22.3203 27.2793 22.1953C27.2272 22.069 27.1556 21.9688 27.0645 21.8945C26.9746 21.8203 26.8691 21.7682 26.748 21.7383C26.627 21.707 26.498 21.6914 26.3613 21.6914C26.2923 21.6914 26.2259 21.694 26.1621 21.6992C26.0996 21.7044 26.0312 21.7116 25.957 21.7207C25.9544 21.821 25.9505 21.9551 25.9453 22.123C25.9414 22.291 25.9362 22.4844 25.9297 22.7031C25.9245 22.9206 25.918 23.1595 25.9102 23.4199C25.9023 23.679 25.8945 23.9505 25.8867 24.2344C25.8789 24.5169 25.8704 24.8079 25.8613 25.1074C25.8522 25.4056 25.8431 25.7031 25.834 26L25.3711 26.0586L25.3359 26.0547C25.3516 25.681 25.3659 25.3268 25.3789 24.9922C25.3919 24.6576 25.4023 24.332 25.4102 24.0156C25.4193 23.6979 25.4264 23.3841 25.4316 23.0742C25.4368 22.763 25.4395 22.4447 25.4395 22.1191ZM27.8164 24.877C27.8164 24.7454 27.8301 24.612 27.8574 24.4766C27.8848 24.3411 27.9251 24.2103 27.9785 24.084C28.0319 23.9564 28.0977 23.8372 28.1758 23.7266C28.2552 23.6146 28.3464 23.5169 28.4492 23.4336C28.5521 23.3503 28.6667 23.2845 28.793 23.2363C28.9193 23.1882 29.0566 23.1641 29.2051 23.1641C29.3717 23.1641 29.5189 23.1992 29.6465 23.2695C29.7754 23.3398 29.8835 23.4329 29.9707 23.5488C30.0579 23.6634 30.1237 23.7943 30.168 23.9414C30.2135 24.0885 30.2363 24.2389 30.2363 24.3926C30.2363 24.5241 30.2227 24.6576 30.1953 24.793C30.168 24.9284 30.127 25.0599 30.0723 25.1875C30.0189 25.3138 29.9525 25.4329 29.873 25.5449C29.7949 25.6556 29.7044 25.7526 29.6016 25.8359C29.4987 25.9193 29.3841 25.985 29.2578 26.0332C29.1315 26.0814 28.9941 26.1055 28.8457 26.1055C28.679 26.1055 28.5312 26.0703 28.4023 26C28.2747 25.9297 28.1673 25.8372 28.0801 25.7227C27.9941 25.6068 27.9284 25.4753 27.8828 25.3281C27.8385 25.181 27.8164 25.0306 27.8164 24.877ZM28.2832 24.6914C28.2832 24.7799 28.2897 24.8698 28.3027 24.9609C28.3171 25.0521 28.3385 25.14 28.3672 25.2246C28.3958 25.3092 28.431 25.3887 28.4727 25.4629C28.5156 25.5358 28.5658 25.5996 28.623 25.6543C28.6816 25.709 28.7467 25.752 28.8184 25.7832C28.8913 25.8145 28.9714 25.8301 29.0586 25.8301C29.1536 25.8301 29.237 25.8099 29.3086 25.7695C29.3815 25.7279 29.444 25.6732 29.4961 25.6055C29.5495 25.5378 29.5931 25.4603 29.627 25.373C29.6621 25.2858 29.6901 25.196 29.7109 25.1035C29.7318 25.0098 29.7461 24.9173 29.7539 24.8262C29.763 24.735 29.7676 24.651 29.7676 24.5742C29.7676 24.4844 29.7604 24.3945 29.7461 24.3047C29.7331 24.2135 29.7122 24.1263 29.6836 24.043C29.6549 23.9583 29.6191 23.8796 29.5762 23.8066C29.5345 23.7324 29.4844 23.6686 29.4258 23.6152C29.3685 23.5605 29.3034 23.5176 29.2305 23.4863C29.1589 23.4551 29.0794 23.4395 28.9922 23.4395C28.8971 23.4395 28.8132 23.4596 28.7402 23.5C28.6686 23.5404 28.6061 23.5944 28.5527 23.6621C28.5007 23.7298 28.457 23.8073 28.4219 23.8945C28.388 23.9818 28.3607 24.0716 28.3398 24.1641C28.319 24.2565 28.304 24.349 28.2949 24.4414C28.2871 24.5326 28.2832 24.6159 28.2832 24.6914ZM30.9727 26.0508L30.9414 26.0488C30.9518 25.9251 30.9616 25.7904 30.9707 25.6445C30.9798 25.4987 30.9883 25.3509 30.9961 25.2012C31.0039 25.0501 31.0104 24.901 31.0156 24.7539C31.0221 24.6055 31.0273 24.4674 31.0312 24.3398C31.0365 24.2109 31.0397 24.0957 31.041 23.9941C31.0436 23.8926 31.0449 23.8125 31.0449 23.7539C31.0449 23.7057 31.043 23.6641 31.0391 23.6289C31.0352 23.5938 31.026 23.5645 31.0117 23.541C30.9987 23.5176 30.9792 23.5007 30.9531 23.4902C30.9271 23.4785 30.8919 23.4727 30.8477 23.4727C30.8255 23.4727 30.8027 23.474 30.7793 23.4766C30.7559 23.4792 30.7298 23.4831 30.7012 23.4883C30.6725 23.4935 30.64 23.5007 30.6035 23.5098C30.5684 23.5176 30.5273 23.5273 30.4805 23.5391L30.4512 23.3984C30.6673 23.3203 30.8424 23.2656 30.9766 23.2344C31.1107 23.2018 31.2012 23.1855 31.248 23.1855C31.334 23.1855 31.3952 23.2109 31.4316 23.2617C31.4694 23.3112 31.4883 23.3854 31.4883 23.4844C31.4883 23.4935 31.487 23.5202 31.4844 23.5645C31.4818 23.6087 31.4779 23.6667 31.4727 23.7383C31.4688 23.8086 31.4635 23.8906 31.457 23.9844C31.4505 24.0781 31.4427 24.179 31.4336 24.2871C31.4258 24.3939 31.4167 24.5059 31.4062 24.623C31.3958 24.7389 31.3848 24.8548 31.373 24.9707L31.3926 24.9727C31.4551 24.7174 31.5254 24.4798 31.6035 24.2598C31.6829 24.0384 31.7715 23.8464 31.8691 23.6836C31.9681 23.5208 32.0762 23.3932 32.1934 23.3008C32.3118 23.207 32.4414 23.1602 32.582 23.1602C32.6315 23.1602 32.6777 23.168 32.7207 23.1836C32.7637 23.1992 32.8008 23.2214 32.832 23.25C32.8633 23.2773 32.888 23.3105 32.9062 23.3496C32.9245 23.3874 32.9336 23.429 32.9336 23.4746C32.9336 23.5332 32.9206 23.5898 32.8945 23.6445C32.8698 23.6979 32.8301 23.7454 32.7754 23.7871H32.7598C32.7051 23.7415 32.653 23.709 32.6035 23.6895C32.5553 23.6686 32.5039 23.6582 32.4492 23.6582C32.3906 23.6582 32.334 23.6693 32.2793 23.6914C32.2246 23.7135 32.1745 23.7454 32.1289 23.7871C32.0547 23.8548 31.9857 23.9447 31.9219 24.0566C31.8581 24.1673 31.7995 24.2904 31.7461 24.4258C31.694 24.5612 31.6465 24.7038 31.6035 24.8535C31.5618 25.002 31.5254 25.1471 31.4941 25.2891C31.4642 25.4297 31.4395 25.5625 31.4199 25.6875C31.4017 25.8112 31.3887 25.9154 31.3809 26L30.9727 26.0508ZM33.7344 23.3242C33.7956 23.3268 33.8548 23.3288 33.9121 23.3301C33.9707 23.3314 34.0247 23.3327 34.0742 23.334C34.125 23.3353 34.1706 23.3359 34.2109 23.3359C34.2526 23.3359 34.2871 23.3359 34.3145 23.3359C34.4329 23.3359 34.5299 23.3288 34.6055 23.3145C34.612 23.3366 34.6172 23.3568 34.6211 23.375C34.625 23.3932 34.627 23.4102 34.627 23.4258C34.627 23.4831 34.6029 23.5202 34.5547 23.5371C34.5078 23.554 34.4395 23.5625 34.3496 23.5625C34.2637 23.5625 34.1673 23.5573 34.0605 23.5469C33.9551 23.5365 33.8392 23.5267 33.7129 23.5176C33.6986 23.6569 33.6862 23.793 33.6758 23.9258C33.6667 24.0573 33.6589 24.1816 33.6523 24.2988C33.6471 24.416 33.6432 24.5247 33.6406 24.625C33.638 24.7253 33.6367 24.8125 33.6367 24.8867C33.6367 25.026 33.6439 25.1504 33.6582 25.2598C33.6725 25.3691 33.6979 25.4622 33.7344 25.5391C33.7708 25.6146 33.821 25.6725 33.8848 25.7129C33.9486 25.7533 34.0293 25.7734 34.127 25.7734C34.1973 25.7734 34.2754 25.7611 34.3613 25.7363C34.4486 25.7116 34.5475 25.6719 34.6582 25.6172C34.6934 25.6523 34.7135 25.6953 34.7188 25.7461C34.638 25.7995 34.5566 25.8483 34.4746 25.8926C34.3926 25.9355 34.3118 25.9727 34.2324 26.0039C34.153 26.0352 34.0762 26.0592 34.002 26.0762C33.9277 26.0931 33.8574 26.1016 33.791 26.1016C33.7038 26.1016 33.6237 26.0853 33.5508 26.0527C33.4792 26.0202 33.4167 25.9635 33.3633 25.8828C33.3112 25.8021 33.2702 25.6927 33.2402 25.5547C33.2116 25.4167 33.1973 25.2422 33.1973 25.0312C33.1973 24.7669 33.2044 24.5072 33.2188 24.252C33.2344 23.9967 33.2546 23.7493 33.2793 23.5098C33.2246 23.5111 33.1738 23.5137 33.127 23.5176C33.0814 23.5215 33.0397 23.528 33.002 23.5371C33.0007 23.5332 33 23.528 33 23.5215V23.5098C33 23.4564 33.0267 23.4167 33.0801 23.3906C33.1348 23.3633 33.2077 23.3424 33.2988 23.3281C33.3145 23.1719 33.3314 23.0228 33.3496 22.8809C33.3678 22.7389 33.3854 22.6074 33.4023 22.4863C33.4206 22.3639 33.4382 22.2533 33.4551 22.1543C33.472 22.054 33.487 21.9681 33.5 21.8965C33.5065 21.8626 33.5182 21.8346 33.5352 21.8125C33.5534 21.7904 33.5742 21.7728 33.5977 21.7598C33.6211 21.7467 33.6465 21.7376 33.6738 21.7324C33.7012 21.7272 33.7279 21.7246 33.7539 21.7246C33.7969 21.7246 33.8353 21.7292 33.8691 21.7383C33.9043 21.7474 33.9368 21.7604 33.9668 21.7773C33.9121 22.0247 33.8659 22.2806 33.8281 22.5449C33.7917 22.8079 33.7604 23.0677 33.7344 23.3242ZM35.7734 23.3203C35.8385 23.3229 35.901 23.3249 35.9609 23.3262C36.0221 23.3275 36.0788 23.3288 36.1309 23.3301C36.1842 23.3301 36.2318 23.3307 36.2734 23.332C36.3164 23.332 36.3529 23.332 36.3828 23.332C36.4427 23.332 36.4993 23.3301 36.5527 23.3262C36.6061 23.3223 36.6517 23.3184 36.6895 23.3145C36.7038 23.3639 36.7109 23.403 36.7109 23.4316C36.7109 23.4889 36.6868 23.5267 36.6387 23.5449C36.5918 23.5632 36.5234 23.5723 36.4336 23.5723C36.3438 23.5723 36.2435 23.5677 36.1328 23.5586C36.0221 23.5482 35.9004 23.5384 35.7676 23.5293C35.7624 23.6842 35.7559 23.8529 35.748 24.0352C35.7402 24.2174 35.7298 24.4062 35.7168 24.6016C35.7051 24.7969 35.6901 24.9954 35.6719 25.1973C35.6536 25.3978 35.6309 25.5938 35.6035 25.7852C35.5775 25.9766 35.5462 26.1589 35.5098 26.332C35.4733 26.5065 35.431 26.6647 35.3828 26.8066C35.306 27.0293 35.2194 27.2148 35.123 27.3633C35.0267 27.513 34.9238 27.6328 34.8145 27.7227C34.7064 27.8138 34.5944 27.8783 34.4785 27.916C34.3613 27.9551 34.2448 27.9746 34.1289 27.9746C34.0286 27.9746 33.9362 27.9635 33.8516 27.9414C33.7656 27.9193 33.6914 27.8893 33.6289 27.8516C33.5664 27.8138 33.5176 27.7695 33.4824 27.7188C33.446 27.6693 33.4277 27.6165 33.4277 27.5605C33.4277 27.5293 33.4349 27.498 33.4492 27.4668C33.4635 27.4368 33.4837 27.4102 33.5098 27.3867C33.5345 27.3633 33.5645 27.3438 33.5996 27.3281C33.6335 27.3138 33.6706 27.3066 33.7109 27.3066C33.7487 27.3743 33.7904 27.4316 33.8359 27.4785C33.8815 27.5267 33.9303 27.5658 33.9824 27.5957C34.0345 27.627 34.0885 27.6497 34.1445 27.6641C34.2005 27.6784 34.2572 27.6855 34.3145 27.6855C34.4642 27.6855 34.5911 27.6367 34.6953 27.5391C34.8008 27.4427 34.8887 27.3053 34.959 27.127C35.0306 26.9499 35.0866 26.7357 35.127 26.4844C35.1673 26.2331 35.1979 25.9538 35.2188 25.6465C35.2409 25.3379 35.2552 25.0052 35.2617 24.6484C35.2695 24.2904 35.2747 23.9154 35.2773 23.5234C35.1549 23.5247 35.0417 23.5293 34.9375 23.5371C34.8333 23.5449 34.7461 23.5618 34.6758 23.5879C34.6706 23.5762 34.668 23.5638 34.668 23.5508C34.668 23.5195 34.6829 23.4909 34.7129 23.4648C34.7428 23.4375 34.7845 23.4134 34.8379 23.3926C34.8926 23.3717 34.9577 23.3548 35.0332 23.3418C35.11 23.3288 35.1947 23.3203 35.2871 23.3164C35.2923 23.194 35.2988 23.0775 35.3066 22.9668C35.3145 22.8548 35.3242 22.7448 35.3359 22.6367C35.349 22.5273 35.3646 22.418 35.3828 22.3086C35.401 22.1992 35.4238 22.0859 35.4512 21.9688C35.4863 21.8164 35.5319 21.6797 35.5879 21.5586C35.6439 21.4362 35.707 21.3281 35.7773 21.2344C35.849 21.1393 35.9258 21.0579 36.0078 20.9902C36.0911 20.9225 36.1764 20.8672 36.2637 20.8242C36.3509 20.7799 36.4395 20.748 36.5293 20.7285C36.6191 20.7077 36.707 20.6973 36.793 20.6973C36.9193 20.6973 37.0312 20.7142 37.1289 20.748C37.2279 20.7806 37.3112 20.8242 37.3789 20.8789C37.4479 20.9323 37.5 20.9928 37.5352 21.0605C37.5716 21.1283 37.5898 21.1973 37.5898 21.2676C37.5898 21.3223 37.5807 21.3711 37.5625 21.4141C37.5456 21.457 37.5215 21.4935 37.4902 21.5234C37.4603 21.5521 37.4251 21.5742 37.3848 21.5898C37.3444 21.6055 37.3014 21.6133 37.2559 21.6133C37.196 21.6133 37.1328 21.5983 37.0664 21.5684L37.0586 21.5469C37.0833 21.4896 37.1016 21.4395 37.1133 21.3965C37.1263 21.3535 37.1328 21.3092 37.1328 21.2637C37.1328 21.2012 37.1198 21.1478 37.0938 21.1035C37.069 21.0579 37.0358 21.0208 36.9941 20.9922C36.9538 20.9635 36.9082 20.9427 36.8574 20.9297C36.8079 20.9167 36.7585 20.9102 36.709 20.9102C36.5632 20.9102 36.4395 20.9427 36.3379 21.0078C36.2376 21.0729 36.1536 21.1628 36.0859 21.2773C36.0195 21.3906 35.9668 21.5247 35.9277 21.6797C35.8887 21.8333 35.8587 21.9993 35.8379 22.1777C35.8184 22.3561 35.804 22.543 35.7949 22.7383C35.7871 22.9323 35.7799 23.1263 35.7734 23.3203ZM36.6367 24.877C36.6367 24.7454 36.6504 24.612 36.6777 24.4766C36.7051 24.3411 36.7454 24.2103 36.7988 24.084C36.8522 23.9564 36.918 23.8372 36.9961 23.7266C37.0755 23.6146 37.1667 23.5169 37.2695 23.4336C37.3724 23.3503 37.487 23.2845 37.6133 23.2363C37.7396 23.1882 37.877 23.1641 38.0254 23.1641C38.1921 23.1641 38.3392 23.1992 38.4668 23.2695C38.5957 23.3398 38.7038 23.4329 38.791 23.5488C38.8783 23.6634 38.944 23.7943 38.9883 23.9414C39.0339 24.0885 39.0566 24.2389 39.0566 24.3926C39.0566 24.5241 39.043 24.6576 39.0156 24.793C38.9883 24.9284 38.9473 25.0599 38.8926 25.1875C38.8392 25.3138 38.7728 25.4329 38.6934 25.5449C38.6152 25.6556 38.5247 25.7526 38.4219 25.8359C38.319 25.9193 38.2044 25.985 38.0781 26.0332C37.9518 26.0814 37.8145 26.1055 37.666 26.1055C37.4993 26.1055 37.3516 26.0703 37.2227 26C37.0951 25.9297 36.9876 25.8372 36.9004 25.7227C36.8145 25.6068 36.7487 25.4753 36.7031 25.3281C36.6589 25.181 36.6367 25.0306 36.6367 24.877ZM37.1035 24.6914C37.1035 24.7799 37.11 24.8698 37.123 24.9609C37.1374 25.0521 37.1589 25.14 37.1875 25.2246C37.2161 25.3092 37.2513 25.3887 37.293 25.4629C37.3359 25.5358 37.3861 25.5996 37.4434 25.6543C37.502 25.709 37.5671 25.752 37.6387 25.7832C37.7116 25.8145 37.7917 25.8301 37.8789 25.8301C37.974 25.8301 38.0573 25.8099 38.1289 25.7695C38.2018 25.7279 38.2643 25.6732 38.3164 25.6055C38.3698 25.5378 38.4134 25.4603 38.4473 25.373C38.4824 25.2858 38.5104 25.196 38.5312 25.1035C38.5521 25.0098 38.5664 24.9173 38.5742 24.8262C38.5833 24.735 38.5879 24.651 38.5879 24.5742C38.5879 24.4844 38.5807 24.3945 38.5664 24.3047C38.5534 24.2135 38.5326 24.1263 38.5039 24.043C38.4753 23.9583 38.4395 23.8796 38.3965 23.8066C38.3548 23.7324 38.3047 23.6686 38.2461 23.6152C38.1888 23.5605 38.1237 23.5176 38.0508 23.4863C37.9792 23.4551 37.8997 23.4395 37.8125 23.4395C37.7174 23.4395 37.6335 23.4596 37.5605 23.5C37.4889 23.5404 37.4264 23.5944 37.373 23.6621C37.321 23.7298 37.2773 23.8073 37.2422 23.8945C37.2083 23.9818 37.181 24.0716 37.1602 24.1641C37.1393 24.2565 37.1243 24.349 37.1152 24.4414C37.1074 24.5326 37.1035 24.6159 37.1035 24.6914ZM40.4531 20.7578C40.4271 20.9792 40.401 21.2064 40.375 21.4395C40.3503 21.6712 40.3262 21.9062 40.3027 22.1445C40.2806 22.3815 40.2598 22.6198 40.2402 22.8594C40.2207 23.099 40.2038 23.3353 40.1895 23.5684C40.1751 23.8001 40.1641 24.028 40.1562 24.252C40.1484 24.4759 40.1445 24.6908 40.1445 24.8965C40.1445 25.0254 40.1458 25.1361 40.1484 25.2285C40.1523 25.321 40.1576 25.3991 40.1641 25.4629C40.1719 25.5267 40.1816 25.5781 40.1934 25.6172C40.2064 25.6562 40.222 25.6862 40.2402 25.707C40.2585 25.7279 40.2799 25.7422 40.3047 25.75C40.3294 25.7565 40.3587 25.7598 40.3926 25.7598C40.4551 25.7598 40.5221 25.7507 40.5938 25.7324C40.6667 25.7129 40.7402 25.6862 40.8145 25.6523L40.8516 25.7539C40.8047 25.7917 40.7454 25.8301 40.6738 25.8691C40.6035 25.9082 40.5293 25.944 40.4512 25.9766C40.373 26.0091 40.2962 26.0352 40.2207 26.0547C40.1465 26.0755 40.082 26.0859 40.0273 26.0859C39.957 26.0859 39.901 26.0677 39.8594 26.0312C39.819 25.9961 39.7878 25.9382 39.7656 25.8574C39.7448 25.7767 39.7311 25.6719 39.7246 25.543C39.7194 25.4128 39.7168 25.2546 39.7168 25.0684C39.7168 25.0007 39.7188 24.9043 39.7227 24.7793C39.7266 24.653 39.7318 24.5065 39.7383 24.3398C39.7461 24.1732 39.7546 23.9909 39.7637 23.793C39.7728 23.5951 39.7826 23.3906 39.793 23.1797C39.8034 22.9674 39.8145 22.7539 39.8262 22.5391C39.8379 22.3229 39.8496 22.1146 39.8613 21.9141C39.873 21.7122 39.8841 21.5221 39.8945 21.3438C39.9049 21.1654 39.9147 21.0078 39.9238 20.8711C39.9251 20.8398 39.9342 20.8132 39.9512 20.791C39.9681 20.7676 39.9896 20.7493 40.0156 20.7363C40.043 20.722 40.0729 20.7116 40.1055 20.7051C40.1393 20.6986 40.1732 20.6953 40.207 20.6953C40.2852 20.6953 40.3672 20.7161 40.4531 20.7578ZM41.6445 22.3691C41.599 22.3691 41.5586 22.36 41.5234 22.3418C41.4883 22.3223 41.4583 22.2975 41.4336 22.2676C41.4089 22.2363 41.39 22.2012 41.377 22.1621C41.3639 22.1217 41.3574 22.0807 41.3574 22.0391C41.3574 21.9805 41.3672 21.929 41.3867 21.8848C41.4062 21.8392 41.4316 21.8014 41.4629 21.7715C41.4941 21.7402 41.5286 21.7174 41.5664 21.7031C41.6042 21.6875 41.6413 21.6797 41.6777 21.6797C41.722 21.6797 41.7617 21.6882 41.7969 21.7051C41.832 21.7207 41.862 21.7428 41.8867 21.7715C41.9128 21.8001 41.9323 21.8333 41.9453 21.8711C41.9596 21.9076 41.9668 21.9473 41.9668 21.9902C41.9668 22.0358 41.959 22.0814 41.9434 22.127C41.9277 22.1712 41.9056 22.2116 41.877 22.248C41.8496 22.2845 41.8158 22.3138 41.7754 22.3359C41.7363 22.3581 41.6927 22.3691 41.6445 22.3691ZM41.8145 23.252C41.7923 23.4004 41.7734 23.5495 41.7578 23.6992C41.7422 23.8477 41.7292 23.9915 41.7188 24.1309C41.7096 24.2702 41.7025 24.4023 41.6973 24.5273C41.6934 24.651 41.6914 24.763 41.6914 24.8633C41.6914 24.9987 41.6934 25.1152 41.6973 25.2129C41.7012 25.3092 41.7077 25.3906 41.7168 25.457C41.7259 25.5234 41.737 25.5768 41.75 25.6172C41.7643 25.6562 41.7812 25.6868 41.8008 25.709C41.8216 25.7298 41.8451 25.7435 41.8711 25.75C41.8984 25.7565 41.929 25.7598 41.9629 25.7598C42.0254 25.7598 42.0924 25.7507 42.1641 25.7324C42.237 25.7129 42.3105 25.6862 42.3848 25.6523L42.4219 25.7539C42.375 25.7917 42.3158 25.8301 42.2441 25.8691C42.1738 25.9082 42.0996 25.944 42.0215 25.9766C41.9434 26.0091 41.8665 26.0352 41.791 26.0547C41.7168 26.0755 41.6523 26.0859 41.5977 26.0859C41.5612 26.0859 41.528 26.0827 41.498 26.0762C41.4681 26.071 41.4408 26.0566 41.416 26.0332C41.3926 26.0098 41.3711 25.9753 41.3516 25.9297C41.3333 25.8841 41.3177 25.8223 41.3047 25.7441C41.293 25.666 41.2839 25.5684 41.2773 25.4512C41.2708 25.334 41.2676 25.1921 41.2676 25.0254C41.2676 24.9277 41.2682 24.8177 41.2695 24.6953C41.2721 24.5716 41.2754 24.4395 41.2793 24.2988C41.2832 24.1569 41.2884 24.0078 41.2949 23.8516C41.3014 23.694 41.3099 23.5319 41.3203 23.3652C41.3229 23.3288 41.3327 23.2995 41.3496 23.2773C41.3665 23.2539 41.3874 23.2363 41.4121 23.2246C41.4368 23.2116 41.4629 23.2031 41.4902 23.1992C41.5189 23.194 41.5449 23.1914 41.5684 23.1914C41.6556 23.1914 41.7376 23.2116 41.8145 23.252ZM42.5664 24.877C42.5664 24.7454 42.5801 24.612 42.6074 24.4766C42.6348 24.3411 42.6751 24.2103 42.7285 24.084C42.7819 23.9564 42.8477 23.8372 42.9258 23.7266C43.0052 23.6146 43.0964 23.5169 43.1992 23.4336C43.3021 23.3503 43.4167 23.2845 43.543 23.2363C43.6693 23.1882 43.8066 23.1641 43.9551 23.1641C44.1217 23.1641 44.2689 23.1992 44.3965 23.2695C44.5254 23.3398 44.6335 23.4329 44.7207 23.5488C44.8079 23.6634 44.8737 23.7943 44.918 23.9414C44.9635 24.0885 44.9863 24.2389 44.9863 24.3926C44.9863 24.5241 44.9727 24.6576 44.9453 24.793C44.918 24.9284 44.877 25.0599 44.8223 25.1875C44.7689 25.3138 44.7025 25.4329 44.623 25.5449C44.5449 25.6556 44.4544 25.7526 44.3516 25.8359C44.2487 25.9193 44.1341 25.985 44.0078 26.0332C43.8815 26.0814 43.7441 26.1055 43.5957 26.1055C43.429 26.1055 43.2812 26.0703 43.1523 26C43.0247 25.9297 42.9173 25.8372 42.8301 25.7227C42.7441 25.6068 42.6784 25.4753 42.6328 25.3281C42.5885 25.181 42.5664 25.0306 42.5664 24.877ZM43.0332 24.6914C43.0332 24.7799 43.0397 24.8698 43.0527 24.9609C43.0671 25.0521 43.0885 25.14 43.1172 25.2246C43.1458 25.3092 43.181 25.3887 43.2227 25.4629C43.2656 25.5358 43.3158 25.5996 43.373 25.6543C43.4316 25.709 43.4967 25.752 43.5684 25.7832C43.6413 25.8145 43.7214 25.8301 43.8086 25.8301C43.9036 25.8301 43.987 25.8099 44.0586 25.7695C44.1315 25.7279 44.194 25.6732 44.2461 25.6055C44.2995 25.5378 44.3431 25.4603 44.377 25.373C44.4121 25.2858 44.4401 25.196 44.4609 25.1035C44.4818 25.0098 44.4961 24.9173 44.5039 24.8262C44.513 24.735 44.5176 24.651 44.5176 24.5742C44.5176 24.4844 44.5104 24.3945 44.4961 24.3047C44.4831 24.2135 44.4622 24.1263 44.4336 24.043C44.4049 23.9583 44.3691 23.8796 44.3262 23.8066C44.2845 23.7324 44.2344 23.6686 44.1758 23.6152C44.1185 23.5605 44.0534 23.5176 43.9805 23.4863C43.9089 23.4551 43.8294 23.4395 43.7422 23.4395C43.6471 23.4395 43.5632 23.4596 43.4902 23.5C43.4186 23.5404 43.3561 23.5944 43.3027 23.6621C43.2507 23.7298 43.207 23.8073 43.1719 23.8945C43.138 23.9818 43.1107 24.0716 43.0898 24.1641C43.069 24.2565 43.054 24.349 43.0449 24.4414C43.0371 24.5326 43.0332 24.6159 43.0332 24.6914Z" fill="#FCFFFA"/>
</svg>
